<svg width="1200" height="1500" viewBox="0 0 1200 1500" fill="none" xmlns="http://www.w3.org/2000/svg">
  <rect width="1200" height="1500" fill="#EFE6DA"/>
  <rect x="126" y="104" width="948" height="1292" rx="54" fill="#F7F1E8"/>
  <circle cx="603" cy="543" r="243" fill="#D7C4B4"/>
  <path d="M369 1170C401 1022 447 896 514 812C579 730 664 692 754 688C833 684 904 709 950 762V1292H369V1170Z" fill="#322722"/>
  <path d="M496 476C512 364 581 298 675 298C764 298 828 353 842 453C855 546 786 641 673 653C555 666 479 593 496 476Z" fill="#E5C6B4"/>
  <path d="M508 457C520 349 590 278 682 278C764 278 829 336 845 421C859 496 833 552 789 605C728 585 655 575 569 579C528 543 503 503 508 457Z" fill="#201816"/>
  <path d="M549 616C621 644 699 646 785 614C774 704 721 760 652 760C581 760 540 715 549 616Z" fill="#E0BAA5"/>
  <path d="M413 782C494 739 568 723 653 725C736 727 810 742 890 782C846 864 800 927 749 983C708 1026 656 1083 604 1119C553 1076 500 1023 456 979C406 929 359 861 321 783C351 793 382 794 413 782Z" fill="#F3EBE0"/>
  <path d="M556 531C583 525 605 527 623 539" stroke="#171311" stroke-width="10" stroke-linecap="round"/>
  <path d="M696 536C719 528 741 530 761 543" stroke="#171311" stroke-width="10" stroke-linecap="round"/>
  <path d="M632 601C654 612 683 611 706 598" stroke="#8C5F57" stroke-width="8" stroke-linecap="round"/>
</svg>
